<svg xmlns="http://www.w3.org/2000/svg" viewBox="0 0 64 64" role="img" aria-label="HSMW">
  <rect width="64" height="64" rx="0" fill="transparent"/>
  <g fill="#0069b4">
    <path d="M10 17c5.2 1.8 9.6 2 14 0v16.8c-4.4 2-8.8 1.8-14 0V17Z"/>
    <path d="M26 12c4.1-2.2 8.1-2.2 12 0v22.2c-3.9-2.1-7.9-2.1-12 0V12Z"/>
    <path d="M40 17c4.4-1.8 8.8-1.8 14 0v16.8c-5.2-1.8-9.6-2-14 0V17Z"/>
    <path d="M10 37c5.2 1.8 9.6 2 14 0v14c-4.4 2-8.8 1.8-14 0V37Z"/>
    <path d="M26 37.4c3.9-2.1 7.9-2.1 12 0V52c-3.9-2.1-7.9-2.1-12 0V37.4Z"/>
    <path d="M40 37c4.4-1.8 8.8-1.8 14 0v14c-5.2-1.8-9.6-2-14 0V37Z"/>
  </g>
</svg>
